<svg width="173" height="72" viewBox="0 0 173 72" fill="none" xmlns="http://www.w3.org/2000/svg">
<path d="M25.9356 23.44C26.1276 24.208 26.2236 25.168 26.2236 26.32C26.2236 27.424 26.1276 28.384 25.9356 29.2C26.1276 29.968 26.2236 30.928 26.2236 32.08C26.2236 33.184 26.1276 34.144 25.9356 34.96C26.1276 35.728 26.2236 36.688 26.2236 37.84C26.2236 38.944 26.1276 39.904 25.9356 40.72C26.1276 41.488 26.2236 42.448 26.2236 43.6C26.2236 44.704 26.1276 45.664 25.9356 46.48C26.1276 47.248 26.2236 48.208 26.2236 49.36C26.2236 50.464 26.1276 51.424 25.9356 52.24C26.1276 53.008 26.2236 53.968 26.2236 55.12C26.2236 56.224 26.1276 57.184 25.9356 58H20.1756C19.9836 57.184 19.8876 56.224 19.8876 55.12C19.8876 53.968 19.9836 53.008 20.1756 52.24H18.0156C17.8236 51.424 17.7276 50.464 17.7276 49.36C17.7276 48.208 17.8236 47.248 18.0156 46.48H20.1756C19.9836 45.664 19.8876 44.704 19.8876 43.6C19.8876 42.448 19.9836 41.488 20.1756 40.72H18.0156C17.8236 39.904 17.7276 38.944 17.7276 37.84C17.7276 36.688 17.8236 35.728 18.0156 34.96H20.1756C19.9836 34.144 19.8876 33.184 19.8876 32.08C19.8876 30.928 19.9836 29.968 20.1756 29.2C19.9836 28.384 19.8876 27.424 19.8876 26.32C19.8876 25.168 19.9836 24.208 20.1756 23.44C19.9836 22.624 19.8876 21.664 19.8876 20.56C19.8876 19.408 19.9836 18.448 20.1756 17.68H25.9356C26.1276 18.448 26.2236 19.408 26.2236 20.56C26.2236 21.664 26.1276 22.624 25.9356 23.44ZM16.8636 32.08C16.8636 33.184 16.7676 34.144 16.5756 34.96H9.37563C9.56763 35.728 9.66363 36.688 9.66363 37.84C9.66363 38.944 9.56763 39.904 9.37563 40.72H7.21563C7.40763 41.488 7.50363 42.448 7.50363 43.6C7.50363 44.704 7.40763 45.664 7.21563 46.48H9.37563C9.56763 47.248 9.66363 48.208 9.66363 49.36C9.66363 50.464 9.56763 51.424 9.37563 52.24H16.5756C16.7676 53.008 16.8636 53.968 16.8636 55.12C16.8636 56.224 16.7676 57.184 16.5756 58H8.65563C8.46363 57.184 8.36763 56.224 8.36763 55.12C8.36763 53.968 8.46363 53.008 8.65563 52.24H5.05563C4.86362 51.424 4.76762 50.464 4.76762 49.36C4.76762 48.208 4.86362 47.248 5.05563 46.48H2.89563C2.70363 45.664 2.60763 44.704 2.60763 43.6C2.60763 42.448 2.70363 41.488 2.89563 40.72H5.05563C4.86362 39.904 4.76762 38.944 4.76762 37.84C4.76762 36.688 4.86362 35.728 5.05563 34.96H8.65563C8.46363 34.144 8.36763 33.184 8.36763 32.08C8.36763 30.928 8.46363 29.968 8.65563 29.2H16.5756C16.7676 29.968 16.8636 30.928 16.8636 32.08ZM53.6118 49.36C53.6118 50.464 53.5158 51.424 53.3238 52.24H50.4438C50.6358 53.008 50.7318 53.968 50.7318 55.12C50.7318 56.224 50.6358 57.184 50.4438 58H34.6038C34.4118 57.184 34.3158 56.224 34.3158 55.12C34.3158 53.968 34.4118 53.008 34.6038 52.24H47.5638C47.3718 51.424 47.2758 50.464 47.2758 49.36C47.2758 48.208 47.3718 47.248 47.5638 46.48H36.0438C35.8518 45.664 35.7558 44.704 35.7558 43.6C35.7558 42.448 35.8518 41.488 36.0438 40.72H33.1638C32.9718 39.904 32.8758 38.944 32.8758 37.84C32.8758 36.688 32.9718 35.728 33.1638 34.96H36.0438C35.8518 34.144 35.7558 33.184 35.7558 32.08C35.7558 30.928 35.8518 29.968 36.0438 29.2H51.8838C52.0758 29.968 52.1718 30.928 52.1718 32.08C52.1718 33.184 52.0758 34.144 51.8838 34.96H38.9238C39.1158 35.728 39.2118 36.688 39.2118 37.84C39.2118 38.944 39.1158 39.904 38.9238 40.72H50.4438C50.6358 41.488 50.7318 42.448 50.7318 43.6C50.7318 44.704 50.6358 45.664 50.4438 46.48H53.3238C53.5158 47.248 53.6118 48.208 53.6118 49.36ZM83.5919 52.24C83.7839 53.008 83.8799 53.968 83.8799 55.12C83.8799 56.224 83.7839 57.184 83.5919 58H77.8319C77.6399 57.184 77.5439 56.224 77.5439 55.12C77.5439 53.968 77.6399 53.008 77.8319 52.24H74.9519C74.7599 51.424 74.6639 50.464 74.6639 49.36C74.6639 48.208 74.7599 47.248 74.9519 46.48H66.3119C66.5039 47.248 66.5999 48.208 66.5999 49.36C66.5999 50.464 66.5039 51.424 66.3119 52.24H74.9519C75.1439 53.008 75.2399 53.968 75.2399 55.12C75.2399 56.224 75.1439 57.184 74.9519 58H63.4319C63.2399 57.184 63.1439 56.224 63.1439 55.12C63.1439 53.968 63.2399 53.008 63.4319 52.24H60.5519C60.3599 51.424 60.2639 50.464 60.2639 49.36C60.2639 48.208 60.3599 47.248 60.5519 46.48H63.4319C63.2399 45.664 63.1439 44.704 63.1439 43.6C63.1439 42.448 63.2399 41.488 63.4319 40.72H74.9519C74.7599 39.904 74.6639 38.944 74.6639 37.84C74.6639 36.688 74.7599 35.728 74.9519 34.96H64.8719C64.6799 34.144 64.5839 33.184 64.5839 32.08C64.5839 30.928 64.6799 29.968 64.8719 29.2H77.8319C78.0239 29.968 78.1199 30.928 78.1199 32.08C78.1199 33.184 78.0239 34.144 77.8319 34.96H80.7119C80.9039 35.728 80.9999 36.688 80.9999 37.84C80.9999 38.944 80.9039 39.904 80.7119 40.72C80.9039 41.488 80.9999 42.448 80.9999 43.6C80.9999 44.704 80.9039 45.664 80.7119 46.48C80.9039 47.248 80.9999 48.208 80.9999 49.36C80.9999 50.464 80.9039 51.424 80.7119 52.24H83.5919Z" fill="white"/>
<path d="M112.42 23.44C112.612 24.208 112.708 25.168 112.708 26.32C112.708 27.424 112.612 28.384 112.42 29.2C112.612 29.968 112.708 30.928 112.708 32.08C112.708 33.184 112.612 34.144 112.42 34.96H110.26C110.452 35.728 110.548 36.688 110.548 37.84C110.548 38.944 110.452 39.904 110.26 40.72H108.1C108.292 41.488 108.388 42.448 108.388 43.6C108.388 44.704 108.292 45.664 108.1 46.48H106.66C106.852 47.248 106.948 48.208 106.948 49.36C106.948 50.464 106.852 51.424 106.66 52.24H103.78C103.972 53.008 104.068 53.968 104.068 55.12C104.068 56.224 103.972 57.184 103.78 58H98.02C97.828 57.184 97.732 56.224 97.732 55.12C97.732 53.968 97.828 53.008 98.02 52.24H95.14C94.948 51.424 94.852 50.464 94.852 49.36C94.852 48.208 94.948 47.248 95.14 46.48H93.7C93.508 45.664 93.412 44.704 93.412 43.6C93.412 42.448 93.508 41.488 93.7 40.72H91.54C91.348 39.904 91.252 38.944 91.252 37.84C91.252 36.688 91.348 35.728 91.54 34.96H89.38C89.188 34.144 89.092 33.184 89.092 32.08C89.092 30.928 89.188 29.968 89.38 29.2C89.188 28.384 89.092 27.424 89.092 26.32C89.092 25.168 89.188 24.208 89.38 23.44C89.188 22.624 89.092 21.664 89.092 20.56C89.092 19.408 89.188 18.448 89.38 17.68H95.14C95.332 18.448 95.428 19.408 95.428 20.56C95.428 21.664 95.332 22.624 95.14 23.44C95.332 24.208 95.428 25.168 95.428 26.32C95.428 27.424 95.332 28.384 95.14 29.2C95.332 29.968 95.428 30.928 95.428 32.08C95.428 33.184 95.332 34.144 95.14 34.96H97.3C97.492 35.728 97.588 36.688 97.588 37.84C97.588 38.944 97.492 39.904 97.3 40.72H99.46C99.652 41.488 99.748 42.448 99.748 43.6C99.748 44.704 99.652 45.664 99.46 46.48H102.34C102.148 45.664 102.052 44.704 102.052 43.6C102.052 42.448 102.148 41.488 102.34 40.72H104.5C104.308 39.904 104.212 38.944 104.212 37.84C104.212 36.688 104.308 35.728 104.5 34.96H106.66C106.468 34.144 106.372 33.184 106.372 32.08C106.372 30.928 106.468 29.968 106.66 29.2C106.468 28.384 106.372 27.424 106.372 26.32C106.372 25.168 106.468 24.208 106.66 23.44C106.468 22.624 106.372 21.664 106.372 20.56C106.372 19.408 106.468 18.448 106.66 17.68H112.42C112.612 18.448 112.708 19.408 112.708 20.56C112.708 21.664 112.612 22.624 112.42 23.44ZM126.848 23.44C126.656 22.624 126.56 21.664 126.56 20.56C126.56 19.408 126.656 18.448 126.848 17.68H132.608C132.8 18.448 132.896 19.408 132.896 20.56C132.896 21.664 132.8 22.624 132.608 23.44H126.848ZM138.368 52.24C138.56 53.008 138.656 53.968 138.656 55.12C138.656 56.224 138.56 57.184 138.368 58H121.088C120.896 57.184 120.8 56.224 120.8 55.12C120.8 53.968 120.896 53.008 121.088 52.24H126.848C126.656 51.424 126.56 50.464 126.56 49.36C126.56 48.208 126.656 47.248 126.848 46.48C126.656 45.664 126.56 44.704 126.56 43.6C126.56 42.448 126.656 41.488 126.848 40.72C126.656 39.904 126.56 38.944 126.56 37.84C126.56 36.688 126.656 35.728 126.848 34.96H122.528C122.336 34.144 122.24 33.184 122.24 32.08C122.24 30.928 122.336 29.968 122.528 29.2H132.608C132.8 29.968 132.896 30.928 132.896 32.08C132.896 33.184 132.8 34.144 132.608 34.96C132.8 35.728 132.896 36.688 132.896 37.84C132.896 38.944 132.8 39.904 132.608 40.72C132.8 41.488 132.896 42.448 132.896 43.6C132.896 44.704 132.8 45.664 132.608 46.48C132.8 47.248 132.896 48.208 132.896 49.36C132.896 50.464 132.8 51.424 132.608 52.24H138.368ZM166.044 37.84C166.044 38.944 165.948 39.904 165.756 40.72H159.996C159.804 39.904 159.708 38.944 159.708 37.84C159.708 36.688 159.804 35.728 159.996 34.96H148.476C148.284 34.144 148.188 33.184 148.188 32.08C148.188 30.928 148.284 29.968 148.476 29.2H168.636C168.828 29.968 168.924 30.928 168.924 32.08C168.924 33.184 168.828 34.144 168.636 34.96H165.756C165.948 35.728 166.044 36.688 166.044 37.84ZM160.284 43.6C160.284 44.704 160.188 45.664 159.996 46.48H154.236C154.044 45.664 153.948 44.704 153.948 43.6C153.948 42.448 154.044 41.488 154.236 40.72H159.996C160.188 41.488 160.284 42.448 160.284 43.6ZM168.636 52.24C168.828 53.008 168.924 53.968 168.924 55.12C168.924 56.224 168.828 57.184 168.636 58H148.476C148.284 57.184 148.188 56.224 148.188 55.12C148.188 53.968 148.284 53.008 148.476 52.24C148.284 51.424 148.188 50.464 148.188 49.36C148.188 48.208 148.284 47.248 148.476 46.48H154.236C154.428 47.248 154.524 48.208 154.524 49.36C154.524 50.464 154.428 51.424 154.236 52.24H168.636Z" fill="#FE971D"/>
</svg>
